<svg xmlns="http://www.w3.org/2000/svg" width="260" height="260" viewBox="0 0 260 260"><g transform="translate(436 -1198)"><rect width="260" height="260" rx="19" transform="translate(-436 1198)" fill="none"/><g transform="translate(-429.725 1198.001)"><path d="M102.467,166.595v1.777l-4.886,4.239L91.8,177.635,88.89,180.43l-15.677-16.27L35.75,197.015l-5.025-5.738L68.29,158.349l5.136-4.97,15.788,16.4,5.081-4.405,3.73-3.248a38.566,38.566,0,0,0,3.295,2.4A2.479,2.479,0,0,1,102.467,166.595Z" transform="translate(0 -5.171)" fill="#d1d1d1"/><path d="M226.34,84.175v18.333c-.352.268-.481.259-.861-.12q-1.763-1.721-3.508-3.452l-.814-.805c-.481-.472-.962-.944-1.444-1.425a.555.555,0,0,0-.111-.1l-.083-.083-33.076,28.865L184,122.591l-.028-.028-11.531-11.79-2.878,2.5-3.6,3.128a34.6,34.6,0,0,0-6.071-4.507.457.457,0,0,1-.167-.157l3.813-3.313,4.433-3.85,4.637-4.535,14.4,14.733,27.07-23.618q-3.207-3.123-6.386-6.256a2.5,2.5,0,0,1-.259-.287.364.364,0,0,1,.268-.592,2.117,2.117,0,0,1,.342-.009q8.815-.014,17.639-.009A.818.818,0,0,1,226.34,84.175Z" transform="translate(-9.615)" fill="#d1d1d1"/><path d="M125.359,106.168a4.019,4.019,0,0,1-.155,1.1,3.02,3.02,0,0,1-.514,1.024,3.263,3.263,0,0,1-.949.825,4.559,4.559,0,0,1-1.444.526v1.564a.321.321,0,0,1-.106.24.329.329,0,0,1-.242.1h-1.576a.332.332,0,0,1-.243-.1.325.325,0,0,1-.1-.24v-1.462q-.67-.033-1.212-.111c-.36-.051-.7-.112-1.024-.181a.526.526,0,0,1-.231-.119.289.289,0,0,1-.093-.224V107.87a.319.319,0,0,1,.325-.327h.036c.171.024.4.043.678.06s.569.033.868.053.582.031.852.043.483.017.644.017a2.344,2.344,0,0,0,1.573-.394,1.507,1.507,0,0,0,.421-1.153,1.376,1.376,0,0,0-.069-.455,1.2,1.2,0,0,0-.231-.386,2.494,2.494,0,0,0-.447-.388q-.286-.2-.714-.456l-2.268-1.359a5.774,5.774,0,0,1-.989-.722,3.508,3.508,0,0,1-.619-.747,2.724,2.724,0,0,1-.326-.809,4.067,4.067,0,0,1,.059-1.986,2.616,2.616,0,0,1,.5-.929,2.9,2.9,0,0,1,.9-.7,4.311,4.311,0,0,1,1.367-.414V95.369a.328.328,0,0,1,.1-.24.336.336,0,0,1,.243-.1h1.576a.333.333,0,0,1,.242.1.323.323,0,0,1,.106.24v1.377c.481.022.947.059,1.4.11a8.473,8.473,0,0,1,1.024.166.5.5,0,0,1,.222.11.271.271,0,0,1,.085.216v1.273a.309.309,0,0,1-.077.222.27.27,0,0,1-.216.087h-.032c-.575-.058-1.141-.1-1.7-.13s-1.124-.043-1.69-.043a2.359,2.359,0,0,0-1.394.318,1.063,1.063,0,0,0-.422.9,1.2,1.2,0,0,0,.059.387,1.034,1.034,0,0,0,.223.362,2.3,2.3,0,0,0,.441.36c.181.121.411.26.687.422l2.063,1.151a6.941,6.941,0,0,1,1.17.8,3.923,3.923,0,0,1,.739.833,2.754,2.754,0,0,1,.378.895,4.577,4.577,0,0,1,.1.979" transform="translate(-6.438 -0.822)" fill="#cd0f21"/><path d="M186.942,134.525a2.5,2.5,0,0,1-.037.453l-3.1,16.2a6.061,6.061,0,0,1-6.2,5.59H167.2a41.473,41.473,0,0,1-14.993,11.587c-.009.842,0,2,.019,3.026v10.273a5.613,5.613,0,0,1-3.026,4.923,6.138,6.138,0,0,1-4.7.342l-7.8-2.415c-3.711-1.37-3.711-3.859-3.711-6.062v-1.731c.046-1.222.083-2.573.111-3.693a54.021,54.021,0,0,1-12.124-.722v9.356a5.577,5.577,0,0,1-2.314,4.479,5.91,5.91,0,0,1-3.452,1.12,5.632,5.632,0,0,1-1.7-.259l-8.07-2.49c-3.7-1.37-3.7-3.859-3.7-6.062V164.575q-1.735-1.208-3.285-2.527c-7.691-6.543-11.994-15.2-11.994-24.386,0-11.429,6.728-21.6,17.149-28.1.426-.268.87-.528,1.314-.787a15.068,15.068,0,0,0,1.129,2.3,12.8,12.8,0,0,0,1.351,1.869c.009.009.009.009.009.019-.444.25-.879.509-1.3.787-8.986,5.59-14.761,14.224-14.761,23.914,0,7.94,3.9,15.465,10.837,21.138a38.566,38.566,0,0,0,3.295,2.4,2.479,2.479,0,0,1,1.148,2.073v15.178a12.6,12.6,0,0,0,.037,1.268,2.14,2.14,0,0,0,.352.167l7.931,2.443a.924.924,0,0,0,.833-.139.71.71,0,0,0,.305-.611V170.841l-.019-1.5a2.437,2.437,0,0,1,3.008-2.415,49.622,49.622,0,0,0,16.177,1.037,2.477,2.477,0,0,1,1.925.657c.9.842.981.916.7,8.19v1.638a12.606,12.606,0,0,0,.037,1.268,2.141,2.141,0,0,0,.352.167l7.94,2.443a.91.91,0,0,0,.824-.139.728.728,0,0,0,.315-.611V171.442c-.12-5.035-.148-6.228,1.573-6.96a37.194,37.194,0,0,0,14.558-10.865l.768-.888a2.434,2.434,0,0,1,1.842-.842H177.6c.7,0,1.323-.453,1.323-.972a2.5,2.5,0,0,1,.037-.453l3.073-16.085a1.3,1.3,0,0,0-1.3-.824h-9.791a2.44,2.44,0,0,1-2.258-1.5l-.287-.694c-.037-.093-.074-.194-.1-.287a27.441,27.441,0,0,0-7.792-12.827,34.6,34.6,0,0,0-6.071-4.507.457.457,0,0,1-.167-.157.889.889,0,0,1-.065-.694l1.046-3.609a.649.649,0,0,1,.888-.231q1,.583,1.943,1.222a40.04,40.04,0,0,1,6.025,4.849,33.494,33.494,0,0,1,8.57,13.549h8.061A6.049,6.049,0,0,1,186.942,134.525Z" transform="translate(-4.154 -1.847)" fill="#2f2f2f"/><path d="M156.107,92.362V103.19a.5.5,0,0,1-.5.5l-3.887-.444a.5.5,0,0,1-.5-.5V95.259c-1.24.565-2.119,1.657-3.369,3.3-1.768,2.332-4.035,5.331-8.847,6.571-.509.13-1.046.241-1.62.333a15.324,15.324,0,0,0,.463-3.739c.148-.472.278-.953.389-1.434a7.608,7.608,0,0,0,1.009-.379c2.175-.944,3.387-2.545,4.7-4.294,1.916-2.536,4.294-5.682,9.662-5.7A2.471,2.471,0,0,1,156.107,92.362Z" transform="translate(-7.95 -0.441)" fill="#2f2f2f"/><path d="M80.295,147.482a9.829,9.829,0,0,0,7-2.96,11.608,11.608,0,0,0,3.107-8.387H85.512a6.947,6.947,0,0,1-1.724,4.977,4.84,4.84,0,0,1-3.493,1.481c-1.946,0-4.2-1.211-4.509-4.56a.924.924,0,0,0-.937-.809H71.818a.916.916,0,0,0-.924.96c.428,6.11,4.941,9.3,9.4,9.3" transform="translate(-2.994 -3.886)" fill="#2f2f2f"/><path d="M157.722,132.174a.83.83,0,0,0,.6.258h4.17a.892.892,0,0,0,.623-.258.782.782,0,0,0,.279-.6v-3.781a.784.784,0,0,0-.279-.6.894.894,0,0,0-.623-.26h-4.17a.832.832,0,0,0-.6.26.822.822,0,0,0-.255.6v3.781a.82.82,0,0,0,.255.6" transform="translate(-9.447 -3.2)" fill="#2f2f2f"/><path d="M136.487,104.751a2.624,2.624,0,0,1-.056.287,16.61,16.61,0,0,1-25.256,10.3,15.868,15.868,0,0,1-3.794-3.378.464.464,0,0,1-.065-.074,14.666,14.666,0,0,1-1.268-1.8,16.825,16.825,0,0,1-1.166-2.3,16.566,16.566,0,0,1,2-16.26.258.258,0,0,1,.37-.056l.787.6a.26.26,0,0,1,.046.361,15.259,15.259,0,0,0-.759,16.862,12.8,12.8,0,0,0,1.351,1.869c.009.009.009.009.009.019a14.912,14.912,0,0,0,4.1,3.4,15.127,15.127,0,0,0,22-9.162c.028-.111.056-.213.083-.324a14.953,14.953,0,0,0-.333-8.505A15.163,15.163,0,0,0,117.82,86.491a15.348,15.348,0,0,0-6,2.36.243.243,0,0,1-.352-.065l-.565-.805a.265.265,0,0,1,.065-.37,16.835,16.835,0,0,1,7.6-2.739,16.619,16.619,0,0,1,18.158,14.659A15.892,15.892,0,0,1,136.487,104.751Z" transform="translate(-5.432 -0.058)" fill="#cd0f21" stroke="#cd0f21" stroke-miterlimit="10" stroke-width="2"/></g></g></svg>