<svg id="Capa_1" data-name="Capa 1" xmlns="http://www.w3.org/2000/svg" viewBox="0 0 150 150"><title>camera</title><path d="M97.9,67.68h-7V60.94a5.86,5.86,0,0,0-5.86-5.85H62a5.86,5.86,0,0,0-5.85,5.85v6.74h-7A12.87,12.87,0,0,0,36.28,80.54V96.45l2.85-2.85V80.54a10,10,0,0,1,10-10H97.9a10,10,0,0,1,10,10v21.19a10,10,0,0,1-10,10H49.13a10,10,0,0,1-10-10V97.66l-2.85,2.85v1.22a12.86,12.86,0,0,0,12.85,12.85H97.9a12.87,12.87,0,0,0,12.86-12.85V80.54A12.88,12.88,0,0,0,97.9,67.68Zm-9.48.17H58.62V60.94A3.35,3.35,0,0,1,62,57.6H85.07a3.35,3.35,0,0,1,3.35,3.34Z" style="fill:#1e1e1e"/><rect x="58.62" y="67.68" width="29.8" height="0.17" style="fill:#1e1e1e"/><path d="M73.51,108.27a17.95,17.95,0,1,1,17.95-18C91.46,97.77,85.89,108.27,73.51,108.27Zm0-32.51a14.57,14.57,0,0,0,0,29.13c11,0,14.57-9.81,14.57-14.57A14.58,14.58,0,0,0,73.51,75.76Z" style="fill:#df0b17"/><path d="M73.51,103.36a13,13,0,1,1,13-13C86.55,95.36,83,103.36,73.51,103.36Zm0-23.62a10.59,10.59,0,0,0,0,21.17c8.68,0,10.59-7.64,10.59-10.59A10.6,10.6,0,0,0,73.51,79.74Z" style="fill:#262626"/><path d="M106.13,47.71a.71.71,0,0,1-.39.11H101v4.67a.71.71,0,0,1-.11.39.39.39,0,0,1-.33.17H98.11a.4.4,0,0,1-.34-.17.71.71,0,0,1-.11-.39V47.82H93a.71.71,0,0,1-.39-.11.36.36,0,0,1-.16-.33V44.89a.36.36,0,0,1,.16-.33.64.64,0,0,1,.39-.11h4.67V39.74a.7.7,0,0,1,.11-.38.4.4,0,0,1,.34-.17h2.49a.39.39,0,0,1,.33.17.7.7,0,0,1,.11.38v4.71h4.7a.64.64,0,0,1,.39.11.36.36,0,0,1,.16.33v2.49A.36.36,0,0,1,106.13,47.71Z" style="fill:#de0c17"/><path d="M98,63.63l.71-1.26a.71.71,0,0,1,.62-.36A15.89,15.89,0,0,0,100,30.24c-7.45-.33-14.89,5.71-16.23,13a15.74,15.74,0,0,0-.11,5,.47.47,0,0,1-.18.43l-1.23.87a.35.35,0,0,1-.55-.22,18,18,0,1,1,35,1.83A18,18,0,0,1,98.25,64.08a.3.3,0,0,1-.24-.45Z" style="fill:#282828"/><path d="M48.26,85.2a5.07,5.07,0,1,1,5.06-5.07A5.08,5.08,0,0,1,48.26,85.2Zm0-8.13a3.07,3.07,0,1,0,3.06,3.06A3.07,3.07,0,0,0,48.26,77.07Z" style="fill:#df0b17"/></svg>