<svg xmlns="http://www.w3.org/2000/svg" width="260" height="260" viewBox="0 0 260 260"><g transform="translate(712 -1200)"><rect width="260" height="260" rx="19" transform="translate(-712 1200)" fill="none"/><g transform="translate(-704.859 1205.326)"><g transform="translate(69.47 68.674)"><path d="M136.466,177.352h-6.579V134.414H115.894v42.939h-6.578V131.124a3.288,3.288,0,0,1,3.289-3.289h20.571a3.288,3.288,0,0,1,3.289,3.289Z" transform="translate(-68.087 -66.62)" fill="#cb1020"/><path d="M82.511,143V96.554H88.67V142a1.329,1.329,0,0,1-.873,1.134L84.36,144.3A1.375,1.375,0,0,1,82.511,143Z" transform="translate(-69.018 -67.706)" fill="#2f2f2f"/><path d="M165.132,96.554v69.233a15.977,15.977,0,0,1-15.947,15.947H98.458a15.977,15.977,0,0,1-15.947-15.947V153.34a1.434,1.434,0,0,1,.908-1.361l3.468-1.167a1.334,1.334,0,0,1,1.782,1.134v13.84a9.8,9.8,0,0,0,9.788,9.788h50.727a9.8,9.8,0,0,0,9.788-9.788V96.554Z" transform="translate(-69.018 -67.706)" fill="#2f2f2f"/><path d="M178.42,109.19l-3.08,1.977a1.264,1.264,0,0,1-1.458-.065l-4.311-3.435L135.733,80.6c-3.761-3.079-7.035-5.736-11.378-5.77h-.161c-4.343.033-7.618,2.69-11.378,5.77L107.4,84.946,78.946,107.7l-4.15,3.338a.675.675,0,0,1-.195.13,1.405,1.405,0,0,1-1.426.032l-3.046-1.945a3.1,3.1,0,0,1-.325-.324,1.789,1.789,0,0,1-.226-.292,1.415,1.415,0,0,1,.389-1.62l5.121-4.116,33.839-27.065c4.116-3.371,8.751-7.163,15.362-7.163,6.581,0,11.214,3.792,15.331,7.163L145,80.149l28.393,22.72,5.122,4.084a.249.249,0,0,1,.129.13A1.351,1.351,0,0,1,178.42,109.19Z" transform="translate(-69.47 -68.674)" fill="#cb1020"/></g><path d="M99.806,103.14q7.933-6.453,15.87-12.9c2.915-2.368-1.235-6.474-4.125-4.125q-7.936,6.449-15.87,12.9c-2.914,2.369,1.236,6.476,4.125,4.125Z" transform="translate(0.875 0.581)" fill="#d1d1d1"/></g></g></svg>