<svg xmlns="http://www.w3.org/2000/svg" width="260" height="260" viewBox="0 0 260 260"><g transform="translate(712 -1754)"><rect width="260" height="260" rx="19" transform="translate(-712 1754)" fill="none"/><g transform="translate(-715.623 1764.979)"><path d="M181.731,98.953l-44.04-25.425a19.229,19.229,0,0,0-18.991.008L86.4,92.3c-.456.264-.454.68-.01.937l4.578,1.211a2.072,2.072,0,0,0,1.635,0l29.928-17.393a12.547,12.547,0,0,1,11.347-.015L176.8,101.819c10.29,5.941,10.326,15.579.106,21.519l-36.957,21.476c-5.232,3.043-13.8,3.054-19.046.028L81.856,122.3c-14.18-9.587-12.094-13.916-.888-21.065a.488.488,0,0,0-.021-.919L77.827,99.1a2.446,2.446,0,0,0-1.86.113c-12.107,7.55-13.129,17.062.957,25.949l44.021,25.414c5.261,3.038,13.767,3.028,18.992-.008l41.93-24.367c12.958-7.529,12.889-19.731-.136-27.252" fill="#2f2f2f"/><path d="M193.185,147.043a2.564,2.564,0,0,1-2.566-2.567v-15.44A14.436,14.436,0,0,0,176.2,114.62H129.32a2.566,2.566,0,1,1,0-5.132H176.2a19.573,19.573,0,0,1,19.549,19.548v15.44a2.564,2.564,0,0,1-2.566,2.567" fill="#d1d1d1"/><path d="M129.3,170.373a97.163,97.163,0,0,1-26.056-3.557L99.6,165.8a13.656,13.656,0,0,1-9.966-13.118V131.6a2.566,2.566,0,0,1,5.132,0v21.077a8.5,8.5,0,0,0,6.21,8.173l3.644,1.017a92.081,92.081,0,0,0,49.392-.008l3.708-1.034a8.354,8.354,0,0,0,6.094-8.027V134.171a2.566,2.566,0,1,1,5.132,0V152.8a13.5,13.5,0,0,1-9.848,12.969l-3.708,1.032a97.2,97.2,0,0,1-26.09,3.569" fill="#2f2f2f"/><path d="M192.385,147.044a.378.378,0,0,1,.259.1c1.848,1.788,6.146,6.4,6.161,10.657a6.395,6.395,0,0,1-6.389,6.415,6.4,6.4,0,0,1-6.387-6.366c-.018-4.2,4.254-8.882,6.092-10.7a.381.381,0,0,1,.264-.107m0-5.133a5.468,5.468,0,0,0-3.867,1.589c-3.493,3.456-7.645,8.75-7.622,14.375a11.521,11.521,0,1,0,23.041-.092c-.023-5.982-4.849-11.54-7.724-14.322a5.437,5.437,0,0,0-3.828-1.55" fill="#cb1020"/></g></g></svg>