<svg xmlns="http://www.w3.org/2000/svg" width="260" height="260" viewBox="0 0 260 260"><g transform="translate(712 -1477)"><rect width="260" height="260" rx="19" transform="translate(-712 1477)" fill="none"/><g transform="translate(-723.483 1469.54)"><path d="M136.6,101.6A14.069,14.069,0,1,1,150.667,87.53,14.085,14.085,0,0,1,136.6,101.6Zm0-22.573a8.5,8.5,0,1,0,8.5,8.5A8.514,8.514,0,0,0,136.6,79.025Zm-14.018,93.29,3.991,27.418a2.847,2.847,0,0,0,2.816,2.428h16.6a2.847,2.847,0,0,0,2.816-2.429l6.528-43.913h3.712a2.845,2.845,0,0,0,2.834-3.129L157.6,109.74a2.847,2.847,0,0,0-2.832-2.565H120.6a2.845,2.845,0,0,0-2.832,2.565L113.5,152.69a2.845,2.845,0,0,0,2.832,3.129h3.714L121.111,163a.816.816,0,0,0,.925.687l4.131.449a.814.814,0,0,0,.687-.928l-1.538-10.656a2.848,2.848,0,0,0-2.817-2.429h-3.024l3.7-37.254h29.014l3.706,37.254h-3.026a2.848,2.848,0,0,0-2.816,2.429l-6.528,43.913H131.843l-3.5-24.063a.815.815,0,0,0-.923-.687l-4.154-.327A.814.814,0,0,0,122.58,172.315Z" transform="translate(0)" fill="#2f2f2f"/><g transform="translate(154.59 143.173)"><path d="M160.791,184.444h-4.944v-47h0s-.174-4.224-2.626-4.224c-2.334,0-2.472,4.793-2.472,4.842l-4.944-.009c0-3.382,1.55-9.776,7.416-9.776,5.821,0,7.5,5.96,7.569,9.11Z" transform="translate(-145.805 -128.274)" fill="#cb0f22"/></g></g></g></svg>