<?xml version="1.0" encoding="utf-8"?>
<!-- Generator: Adobe Illustrator 23.0.2, SVG Export Plug-In . SVG Version: 6.00 Build 0)  -->
<svg version="1.1" id="Layer_1" xmlns="http://www.w3.org/2000/svg" xmlns:xlink="http://www.w3.org/1999/xlink" x="0px" y="0px"
	 viewBox="0 0 260 260" style="enable-background:new 0 0 260 260;" xml:space="preserve">
<style type="text/css">
	.st0{fill:none;}
	.st1{fill:#CB1020;}
	.st2{fill:#2F2F2F;}
	.st3{fill:#D1D1D1;}
	.st4{fill:#D7282F;}
</style>
<g>
	<path class="st3" d="M152.6,167h-28.5c-5,0-9.1-4.1-9.1-9.1v-28.5c0-5,4.1-9.1,9.1-9.1h28.5c5,0,9.1,4.1,9.1,9.1v28.5
		C161.7,162.9,157.6,167,152.6,167z"/>
	<g>
		<path class="st2" d="M150,147.8c-0.2,0.1-0.4,0.2-0.7,0.2h-8.1v8.1c0,0.3-0.1,0.5-0.2,0.7c-0.1,0.2-0.3,0.3-0.6,0.3h-4.3
			c-0.3,0-0.4-0.1-0.6-0.3c-0.1-0.2-0.2-0.4-0.2-0.7V148h-8.1c-0.3,0-0.5-0.1-0.7-0.2c-0.2-0.1-0.3-0.3-0.3-0.6V143
			c0-0.3,0.1-0.4,0.3-0.6c0.2-0.1,0.4-0.2,0.7-0.2h8.1v-8.1c0-0.3,0.1-0.5,0.2-0.7c0.1-0.2,0.3-0.3,0.6-0.3h4.3
			c0.3,0,0.4,0.1,0.6,0.3c0.1,0.2,0.2,0.4,0.2,0.7v8.1h8.1c0.3,0,0.5,0.1,0.7,0.2c0.2,0.1,0.3,0.3,0.3,0.6v4.3
			C150.3,147.5,150.2,147.7,150,147.8z"/>
	</g>
</g>
<g>
	<path class="st2" d="M172.5,80.5l-4.9-6.3c-2.2-2.9-6.3-3.4-9.2-1.2l-68,52.3L84.3,140l-2.6,2c-1.1,0.9-1.4,2.5-0.5,3.7
		c0.9,1.1,2.5,1.4,3.7,0.5l2.6-2l15.8-2.2l68-52.3C174.1,87.5,174.7,83.4,172.5,80.5z M155,95.6l-6.5-8.4l4.2-3.2l6.5,8.4L155,95.6z
		 M93.8,130.7l5.1,6.6l-8.3,1.1L93.8,130.7z M101.6,136.6l-6.5-8.4l51.3-39.4l6.5,8.4L101.6,136.6z M168.1,85.5l-6.8,5.2l-6.5-8.4
		l6.8-5.2c0.6-0.4,1.4-0.3,1.8,0.2l4.9,6.3C168.8,84.3,168.7,85.1,168.1,85.5z"/>
	
		<rect x="91.7" y="107.4" transform="matrix(0.7929 -0.6094 0.6094 0.7929 -42.9766 98.9318)" class="st4" width="64.7" height="10.6"/>
</g>
</svg>
