<?xml version="1.0" encoding="utf-8"?>
<!-- Generator: Adobe Illustrator 23.0.2, SVG Export Plug-In . SVG Version: 6.00 Build 0)  -->
<svg version="1.1" id="Layer_1" xmlns="http://www.w3.org/2000/svg" xmlns:xlink="http://www.w3.org/1999/xlink" x="0px" y="0px"
	 viewBox="0 0 260 260" style="enable-background:new 0 0 260 260;" xml:space="preserve">
<style type="text/css">
	.st0{fill:none;}
	.st1{fill:#CB1020;}
	.st2{fill:#2F2F2F;}
	.st3{fill:#D1D1D1;}
	.st4{fill:#D7282F;}
</style>
<g transform="translate(712 -1200)">
	<path class="st0" d="M-990,891h222c10.5,0,19,8.5,19,19v222c0,10.5-8.5,19-19,19h-222c-10.5,0-19-8.5-19-19V910
		C-1009,899.5-1000.5,891-990,891z"/>
	<g transform="translate(-704.859 1205.326)">
		<g transform="translate(69.47 68.674)">
			<path class="st1" d="M-228.6-198.3h-6.6v-42.9h-14v42.9h-6.6v-46.2c0-1.8,1.5-3.3,3.3-3.3c0,0,0,0,0,0h20.6
				c1.8,0,3.3,1.5,3.3,3.3c0,0,0,0,0,0L-228.6-198.3z"/>
			<path class="st2" d="M-283.5-233.7v-46.4h6.2v45.4c0,0.5-0.4,1-0.9,1.1l-3.4,1.2c-0.7,0.3-1.5-0.1-1.8-0.8
				C-283.5-233.4-283.5-233.6-283.5-233.7z"/>
			<path class="st2" d="M-200.9-280.2v69.2c0,8.8-7.1,15.9-15.9,15.9h-50.7c-8.8,0-15.9-7.1-15.9-15.9v-12.4c0-0.6,0.4-1.1,0.9-1.4
				l3.5-1.2c0.7-0.3,1.5,0.1,1.7,0.8c0,0.1,0.1,0.2,0.1,0.3v13.8c0,5.4,4.4,9.8,9.8,9.8h50.7c5.4,0,9.8-4.4,9.8-9.8v-69.2H-200.9z"
				/>
			<path class="st1" d="M-188.1-268.5l-3.1,2c-0.5,0.3-1,0.3-1.5-0.1l-4.3-3.4l-33.8-27.1c-3.8-3.1-7-5.7-11.4-5.8h-0.2
				c-4.3,0-7.6,2.7-11.4,5.8l-5.4,4.3l-28.5,22.8l-4.2,3.3c-0.1,0.1-0.1,0.1-0.2,0.1c-0.4,0.3-1,0.3-1.4,0l-3-1.9
				c-0.1-0.1-0.2-0.2-0.3-0.3c-0.1-0.1-0.2-0.2-0.2-0.3c-0.2-0.6-0.1-1.2,0.4-1.6l5.1-4.1l33.8-27.1c4.1-3.4,8.8-7.2,15.4-7.2
				c6.6,0,11.2,3.8,15.3,7.2l5.4,4.3l28.4,22.7l5.1,4.1c0.1,0,0.1,0.1,0.1,0.1c0.5,0.5,0.5,1.4,0,1.9
				C-187.9-268.6-188-268.6-188.1-268.5z"/>
		</g>
		<path class="st3" d="M-196.3-205.3c5.3-4.3,10.6-8.6,15.9-12.9c2.9-2.4-1.2-6.5-4.1-4.1c-5.3,4.3-10.6,8.6-15.9,12.9
			C-203.4-207.1-199.2-203-196.3-205.3z"/>
	</g>
</g>
<g>
	<path class="st2" d="M-229.1,199.7v-57.9c0-17.9-14.5-32.4-32.4-32.4h-90.3c-7.2,0-13.1,5.8-13.1,13.1v44.6c0,0.6,0.5,1.1,1.1,1.1
		l4.6-1.7c0.7-0.2,1.1-0.5,1.1-1.1v-42.9c0-3.5,2.8-6.2,6.2-6.2h90.3c14.1,0,25.6,11.4,25.6,25.6v57.9c0,3.5-2.8,6.2-6.2,6.2h-90.3
		c-13.7,0-25-10.9-25.5-24.5c0-0.6-0.5-1.1-1.1-1.1l-4.6,1.7c-0.7,0.3-1.2,0.8-1.1,1.4c0.6,17.3,14.9,29.2,32.4,29.2h90.3
		C-235,212.7-229.1,206.9-229.1,199.7"/>
	<path class="st2" d="M-311,191.9c-16.5,0-30-13.4-30-30s13.4-30,30-30c16.5,0,30,13.4,30,30S-294.5,191.9-311,191.9 M-311,137
		c-13.8,0-25,11.2-25,25s11.2,25,25,25c13.8,0,25-11.2,25-25S-297.2,137-311,137"/>
	<path class="st4" d="M-311,174.4c-6.9,0-12.5-5.6-12.5-12.5c0-6.9,5.6-12.5,12.5-12.5c6.9,0,12.5,5.6,12.5,12.5
		C-298.5,168.8-304.1,174.4-311,174.4 M-311,154.4c-4.1,0-7.5,3.4-7.5,7.5c0,4.1,3.4,7.5,7.5,7.5c4.1,0,7.5-3.4,7.5-7.5
		C-303.5,157.8-306.8,154.4-311,154.4"/>
	<path class="st2" d="M-254.1,194.6h-6.2c-4.8,0-8.7-3.9-8.7-8.7v-47.4c0-4.8,3.9-8.7,8.7-8.7h6.2c1.4,0,2.5,1.1,2.5,2.5
		c0,1.4-1.1,2.5-2.5,2.5h-6.2c-2.1,0-3.7,1.7-3.7,3.7v47.4c0,2.1,1.7,3.7,3.7,3.7h6.2c1.4,0,2.5,1.1,2.5,2.5
		C-251.6,193.4-252.7,194.6-254.1,194.6"/>
	<path class="st2" d="M-311,144.5c-1.4,0-2.5-1.1-2.5-2.5v-7.5c0-1.4,1.1-2.5,2.5-2.5c1.4,0,2.5,1.1,2.5,2.5v7.5
		C-308.5,143.3-309.6,144.5-311,144.5"/>
	<path class="st2" d="M-311,191.9c-1.4,0-2.5-1.1-2.5-2.5v-7.5c0-1.4,1.1-2.5,2.5-2.5c1.4,0,2.5,1.1,2.5,2.5v7.5
		C-308.5,190.8-309.6,191.9-311,191.9"/>
	<path class="st2" d="M-283.5,164.4h-7.5c-1.4,0-2.5-1.1-2.5-2.5c0-1.4,1.1-2.5,2.5-2.5h7.5c1.4,0,2.5,1.1,2.5,2.5
		C-281,163.3-282.1,164.4-283.5,164.4"/>
	<path class="st2" d="M-330.9,164.4h-7.5c-1.4,0-2.5-1.1-2.5-2.5c0-1.4,1.1-2.5,2.5-2.5h7.5c1.4,0,2.5,1.1,2.5,2.5
		C-328.5,163.3-329.6,164.4-330.9,164.4"/>
	<path class="st2" d="M-325.1,150.3c-0.6,0-1.3-0.2-1.8-0.7l-5.3-5.3c-1-1-1-2.6,0-3.5c1-1,2.6-1,3.5,0l5.3,5.3c1,1,1,2.6,0,3.5
		C-323.8,150.1-324.5,150.3-325.1,150.3"/>
	<path class="st2" d="M-291.6,183.8c-0.6,0-1.3-0.2-1.8-0.7l-5.3-5.3c-1-1-1-2.6,0-3.5c1-1,2.6-1,3.5,0l5.3,5.3c1,1,1,2.6,0,3.5
		C-290.3,183.6-290.9,183.8-291.6,183.8"/>
	<path class="st2" d="M-296.9,150.3c-0.6,0-1.3-0.2-1.8-0.7c-1-1-1-2.6,0-3.5l5.3-5.3c1-1,2.6-1,3.5,0c1,1,1,2.6,0,3.5l-5.3,5.3
		C-295.6,150.1-296.2,150.3-296.9,150.3"/>
	<path class="st2" d="M-330.4,183.8c-0.6,0-1.3-0.2-1.8-0.7c-1-1-1-2.6,0-3.5l5.3-5.3c1-1,2.6-1,3.5,0c1,1,1,2.6,0,3.5l-5.3,5.3
		C-329.1,183.6-329.8,183.8-330.4,183.8"/>
	<path class="st4" d="M-256.6,187.1c-1.4,0-2.5-1.1-2.5-2.5v-44.9c0-1.4,1.1-2.5,2.5-2.5c1.4,0,2.5,1.1,2.5,2.5v44.9
		C-254.1,186-255.2,187.1-256.6,187.1"/>
</g>
<g>
	<path class="st3" d="M152.6,167h-28.5c-5,0-9.1-4.1-9.1-9.1v-28.5c0-5,4.1-9.1,9.1-9.1h28.5c5,0,9.1,4.1,9.1,9.1v28.5
		C161.7,162.9,157.6,167,152.6,167z"/>
	<g>
		<path class="st2" d="M150,147.8c-0.2,0.1-0.4,0.2-0.7,0.2h-8.1v8.1c0,0.3-0.1,0.5-0.2,0.7c-0.1,0.2-0.3,0.3-0.6,0.3h-4.3
			c-0.3,0-0.4-0.1-0.6-0.3c-0.1-0.2-0.2-0.4-0.2-0.7V148h-8.1c-0.3,0-0.5-0.1-0.7-0.2c-0.2-0.1-0.3-0.3-0.3-0.6V143
			c0-0.3,0.1-0.4,0.3-0.6c0.2-0.1,0.4-0.2,0.7-0.2h8.1v-8.1c0-0.3,0.1-0.5,0.2-0.7c0.1-0.2,0.3-0.3,0.6-0.3h4.3
			c0.3,0,0.4,0.1,0.6,0.3c0.1,0.2,0.2,0.4,0.2,0.7v8.1h8.1c0.3,0,0.5,0.1,0.7,0.2c0.2,0.1,0.3,0.3,0.3,0.6v4.3
			C150.3,147.5,150.2,147.7,150,147.8z"/>
	</g>
</g>
<g>
	<path class="st2" d="M172.5,80.5l-4.9-6.3c-2.2-2.9-6.3-3.4-9.2-1.2l-68,52.3L84.3,140l-2.6,2c-1.1,0.9-1.4,2.5-0.5,3.7
		c0.9,1.1,2.5,1.4,3.7,0.5l2.6-2l15.8-2.2l68-52.3C174.1,87.5,174.7,83.4,172.5,80.5z M155,95.6l-6.5-8.4l4.2-3.2l6.5,8.4L155,95.6z
		 M93.8,130.7l5.1,6.6l-8.3,1.1L93.8,130.7z M101.6,136.6l-6.5-8.4l51.3-39.4l6.5,8.4L101.6,136.6z M168.1,85.5l-6.8,5.2l-6.5-8.4
		l6.8-5.2c0.6-0.4,1.4-0.3,1.8,0.2l4.9,6.3C168.8,84.3,168.7,85.1,168.1,85.5z"/>
	
		<rect x="91.7" y="107.4" transform="matrix(0.7929 -0.6094 0.6094 0.7929 -42.9766 98.9318)" class="st4" width="64.7" height="10.6"/>
</g>
</svg>
