<svg xmlns="http://www.w3.org/2000/svg" width="260" height="260" viewBox="0 0 260 260"><g transform="translate(436 -1477)"><rect width="260" height="260" rx="19" transform="translate(-436 1477)" fill="none"/><g transform="translate(-439.772 1471.233)"><g transform="translate(69.772 81.542)"><path d="M98.572,114.073c-1,.15-15.641,14.463-15.641,14.463l-.311.407a7.138,7.138,0,0,0-.836,2.111l-.032,4.425h29.665V114.062H98.861Zm8.849,3.985v13.424h-21.6a2.8,2.8,0,0,1,.15-.343L98.7,118.176a.642.642,0,0,1,.321-.118Z" transform="translate(-68.917 -79.222)" fill="#d1d1d1"/><path d="M100.3,154.7a10.16,10.16,0,0,0-7.478,3.15,10.813,10.813,0,0,0,0,15.127,10.143,10.143,0,0,0,7.478,3.15,10.433,10.433,0,0,0,4.06-.793,10.6,10.6,0,0,0,3.407-2.357,10.813,10.813,0,0,0,0-15.127A10.119,10.119,0,0,0,100.3,154.7Zm4.617,15.47a6.455,6.455,0,0,1-9.246,0,6.831,6.831,0,0,1,0-9.513,6.455,6.455,0,0,1,9.246,0,6.8,6.8,0,0,1,0,9.513Z" transform="translate(-68.348 -76.323)" fill="#2f2f2f"/><path d="M172.87,107.092H159.9V93.85a4.124,4.124,0,0,0-1.168-2.968,4.056,4.056,0,0,0-2.968-1.211H142.927a4.023,4.023,0,0,0-2.946,1.2,4.106,4.106,0,0,0-1.189,2.978v13.242H125.817a4.066,4.066,0,0,0-2.968,1.211,4.169,4.169,0,0,0-1.168,2.968v13.06a4.133,4.133,0,0,0,1.178,2.968,4.032,4.032,0,0,0,2.957,1.211h12.974v13.242a4.09,4.09,0,0,0,1.178,2.957,4.041,4.041,0,0,0,2.957,1.221h12.835a4.024,4.024,0,0,0,2.968-1.221,4.1,4.1,0,0,0,1.168-2.957V128.508H172.87a4.056,4.056,0,0,0,2.968-1.211,4.169,4.169,0,0,0,1.168-2.968V111.27a4.132,4.132,0,0,0-1.178-2.978A4.023,4.023,0,0,0,172.87,107.092Zm.139,17.238-.139.182H155.9v17.238l-.139.171H142.927l-.139-.171V124.512h-16.97l-.139-.182V111.27l.139-.182h16.97V93.85l.139-.182h12.835l.139.182v17.238h16.97l.139.182Z" transform="translate(-66.069 -80.962)" fill="#cd0f21"/><path d="M195.986,83.428a6.138,6.138,0,0,0-4.435-1.886h-77a6.138,6.138,0,0,0-4.435,1.886,6.255,6.255,0,0,0-1.843,4.467v19.777h-8.7a13.605,13.605,0,0,0-8.71,3.653L77.636,124.8a12.171,12.171,0,0,0-2.571,4.125,12.722,12.722,0,0,0-1.018,4.692v26.633a6.356,6.356,0,0,0-2.432,1.564,6.324,6.324,0,0,0,.011,8.935,6.1,6.1,0,0,0,4.425,1.886H82.7a18.784,18.784,0,0,0,5.485,11.71,18.9,18.9,0,0,0,27.051,0,18.8,18.8,0,0,0,5.5-11.71H142.58a18.8,18.8,0,0,0,5.5,11.71,18.9,18.9,0,0,0,27.051,0,18.8,18.8,0,0,0,5.5-11.71H191.55a6.142,6.142,0,0,0,4.435-1.9,6.211,6.211,0,0,0,1.843-4.467V87.9a6.275,6.275,0,0,0-1.843-4.457Zm-2.164,82.846a2.224,2.224,0,0,1-.686,1.661,2.1,2.1,0,0,1-1.586.7H176.712v2a14.871,14.871,0,0,1-4.435,10.917,14.9,14.9,0,0,1-21.341,0,14.881,14.881,0,0,1-4.446-10.917v-2H116.825v2a14.871,14.871,0,0,1-4.435,10.917,14.9,14.9,0,0,1-21.341,0A14.881,14.881,0,0,1,86.6,170.634v-2H76.05a2.074,2.074,0,0,1-1.575-.686,2.245,2.245,0,0,1-.707-1.671,2.285,2.285,0,0,1,.7-1.661,2.112,2.112,0,0,1,1.586-.686h2V133.619a8.6,8.6,0,0,1,.729-3.2,8.435,8.435,0,0,1,1.7-2.818l13.231-13.467a8.391,8.391,0,0,1,2.743-1.736,8.564,8.564,0,0,1,3.118-.729h12.7V87.9a2.251,2.251,0,0,1,.7-1.661,2.085,2.085,0,0,1,1.586-.7h77a2.063,2.063,0,0,1,1.575.7,2.227,2.227,0,0,1,.7,1.661Z" transform="translate(-69.772 -81.542)" fill="#2f2f2f"/><path d="M163.673,157.852a10.452,10.452,0,0,0-14.956,0,10.84,10.84,0,0,0,0,15.127,10.452,10.452,0,0,0,14.956,0,10.84,10.84,0,0,0,0-15.127Zm-2.86,12.32a6.455,6.455,0,0,1-9.246,0,6.831,6.831,0,0,1,0-9.513,6.455,6.455,0,0,1,9.246,0,6.831,6.831,0,0,1,0,9.513Z" transform="translate(-64.36 -76.323)" fill="#2f2f2f"/></g><path d="M105.712,115.927" transform="translate(2.564 2.453)" fill="#d1d1d1"/><rect width="5.489" height="18.778" rx="1.584" transform="translate(184.52 145.15)" fill="#d1d1d1"/><rect width="5.489" height="15.831" rx="1.455" transform="translate(82.606 143.737)" fill="#d1d1d1"/></g></g></svg>