<svg xmlns="http://www.w3.org/2000/svg" width="260" height="260" viewBox="0 0 260 260"><g transform="translate(436 -1754)"><rect width="260" height="260" rx="19" transform="translate(-436 1754)" fill="none"/><g transform="translate(-421.752 1756.571)"><path d="M97.025,63.943c-3.794-3.792-9.141.536-11.159,2.17L74.426,75.376,47.477,70.881A2.248,2.248,0,0,0,45.1,72.1l-3.107,6.211a2.242,2.242,0,0,0,.959,3L60.27,90.477l-6.507,7.629-5.894.487a2.243,2.243,0,0,0-1.951,1.54L44,105.979a2.257,2.257,0,0,0,1.7,2.91l5.319,1.064,1.066,5.321a2.258,2.258,0,0,0,1.072,1.5,2.234,2.234,0,0,0,1.836.194l5.843-1.919a2.256,2.256,0,0,0,1.546-1.956l.48-5.886,7.634-6.5,9.169,17.315a2.24,2.24,0,0,0,1.982,1.2,2.266,2.266,0,0,0,1.015-.24l6.214-3.107a2.249,2.249,0,0,0,1.21-2.38l-4.492-26.95L94.856,75.1c1.631-2.015,5.965-7.364,2.169-11.159m-4.249,7.085L82.216,84.07a2.407,2.407,0,0,0-.5,1.909l4.68,28.07-2.941,1.472L73.367,96.476A2.372,2.372,0,0,0,71.7,95.24a2.411,2.411,0,0,0-2.015.528L58.5,105.3a2.4,2.4,0,0,0-.837,1.625l-.466,5.69-2.15.7-1.2-5.99-6.2-1.39.711-2.164,5.684-.466a2.408,2.408,0,0,0,1.628-.826l9.53-11.19A2.4,2.4,0,0,0,64.5,87.6L45.451,77.523l1.469-2.941,28.067,4.672a2.372,2.372,0,0,0,1.908-.5L89.94,68.2c3.313-2.681,4.177-2.113,4.656-1.628s.866,1.141-1.821,4.459" fill="#2f2f2f"/><g transform="translate(74.029 68.84)"><path d="M163.454,175.953H103.74l-.6-.58C78.973,152.09,81.672,132.905,81.8,132.1l.189-1.194,50.263-18.849a3.872,3.872,0,0,1,2.693,0l50.26,18.849.19,1.194c-.612-3.891,3.565,19.278-21.338,43.272Zm-58.036-4.146h56.357c18.745-18.357,19.739-33.682,19.606-37.906L133.6,115.98,85.819,133.9c-.1,4.237.966,19.657,19.6,37.91" transform="translate(-73.483 -68.163)" fill="#2f2f2f"/><path d="M94.069,140.577a2.072,2.072,0,0,1-.717-4.016l40.122-14.782,38.042,14.794a2.072,2.072,0,0,1-1.5,3.863L133.433,126.21,94.787,140.449a2.067,2.067,0,0,1-.718.128" transform="translate(-73.341 -68.027)" fill="#cb0f22"/><path d="M124.77,95.7h16.583V75.383a2.485,2.485,0,0,0-2.483-2.484H127.254a2.487,2.487,0,0,0-2.484,2.484ZM145.5,99.846H120.625V75.383a6.638,6.638,0,0,1,6.629-6.63h11.617a6.638,6.638,0,0,1,6.629,6.63Z" transform="translate(-72.949 -68.753)" fill="#cb0f22"/><path d="M160.261,108.6h-4.145a2.073,2.073,0,0,1,0-4.146h4.145a2.073,2.073,0,0,1,0,4.146m-10.364,0h-4.146a2.073,2.073,0,0,1,0-4.146H149.9a2.073,2.073,0,0,1,0,4.146m-10.364,0h-4.146a2.073,2.073,0,0,1,0-4.146h4.146a2.073,2.073,0,0,1,0,4.146m-10.365,0h-4.145a2.073,2.073,0,1,1,0-4.146h4.145a2.073,2.073,0,0,1,0,4.146m-10.364,0h-4.146a2.073,2.073,0,0,1,0-4.146H118.8a2.073,2.073,0,0,1,0,4.146m-10.364,0h-4.146a2.073,2.073,0,0,1,0-4.146h4.146a2.073,2.073,0,0,1,0,4.146" transform="translate(-73.201 -68.264)" fill="#cb0f22"/><path d="M152.123,175.534H114.177l4.186-29.3a4.532,4.532,0,0,1,4.462-3.87h20.652a4.528,4.528,0,0,1,4.461,3.872Zm-33.166-4.146h28.387l-3.509-24.563a.362.362,0,0,0-.357-.311H122.825a.361.361,0,0,0-.359.311Z" transform="translate(-73.037 -67.744)" fill="#2f2f2f"/><path d="M187.6,175.584H75.666a2.306,2.306,0,0,1,0-4.588H187.6a2.306,2.306,0,0,1,0,4.588" transform="translate(-73.593 -67.352)" fill="#d1d1d1"/><path d="M164.407,183.322H104.294a2.073,2.073,0,0,1,0-4.146h60.113a2.073,2.073,0,0,1,0,4.146" transform="translate(-73.201 -67.24)" fill="#d1d1d1"/><path d="M147.628,191.5h-29.02a2.073,2.073,0,0,1,0-4.146h29.02a2.073,2.073,0,1,1,0,4.146" transform="translate(-73.005 -67.128)" fill="#d1d1d1"/><path d="M174.912,128.762h-4.146V101.3a1.817,1.817,0,0,0-1.814-1.816H97.959a1.819,1.819,0,0,0-1.817,1.816v27.464H92V101.3a5.967,5.967,0,0,1,5.962-5.962h70.994a5.968,5.968,0,0,1,5.96,5.962Z" transform="translate(-73.341 -68.389)" fill="#2f2f2f"/></g></g></g></svg>